<?xml version="1.0" encoding="UTF-8"?>
<svg width="24px" height="24px" viewBox="0 0 24 24" version="1.1" xmlns="http://www.w3.org/2000/svg" xmlns:xlink="http://www.w3.org/1999/xlink">
    <!-- Generator: Sketch 51.2 (57519) - http://www.bohemiancoding.com/sketch -->
    <title>asterisk</title>
    <desc>Created with Sketch.</desc>
    <defs></defs>
    <g id="asterisk" stroke="none" stroke-width="1" fill="none" fill-rule="evenodd">
        <path d="M19.8242424,11.0282828 C20.6079192,11.0282828 20.6983434,11.1789899 20.6983434,12.5353535 L20.6983434,13.1080404 C20.6983434,13.6204444 20.3667879,13.9218586 19.794101,13.9218586 L19.5228283,13.9218586 L15.2126061,13.077899 L15.1221818,13.077899 L13.2232727,12.9271919 L13.2232727,13.1080404 L14.0973737,14.1328485 L15.8757172,16.1824646 L16.5991111,16.9661414 C17.2622222,17.6895354 17.5937778,18.171798 17.5937778,18.5033535 C17.5937778,18.9253333 17.0813737,19.3774545 16.0867071,19.7692929 C15.9058586,19.8597172 15.6345859,19.92 15.4838788,19.92 C15.0920404,19.92 14.7906263,19.558303 14.4892121,18.7444848 L13.1328485,15.0973737 L13.0424242,14.7658182 L12.6204444,13.7711515 L12.4998788,13.4998788 L12.2587475,13.439596 C12.077899,13.8615758 12.0176162,13.952 11.8066263,14.5246869 L11.716202,14.7658182 C10.4201212,18.3225051 10.1187071,19.1061818 9.72686869,19.5884444 C9.57616162,19.7391515 9.36517172,19.8597172 9.15418182,19.8597172 C8.70206061,19.8597172 7.97866667,19.4980202 7.43612121,19.0157576 C7.28541414,18.8650505 7.16484848,18.6540606 7.16484848,18.4732121 C7.16484848,18.2320808 7.34569697,17.9909495 7.67725253,17.5689697 L8.61163636,16.4537374 L10.8722424,13.952 C11.4696648,13.3839544 11.7107961,13.0423517 11.5956364,12.9271919 C11.4804766,12.8120322 10.9379312,12.8522207 9.968,13.0477576 L7.52654545,13.4697374 L6.53187879,13.6807273 C5.71806061,13.8615758 5.05494949,13.952 4.78367677,13.952 C4.2109899,13.952 4,13.5300202 4,12.5052121 C4,11.3598384 4.24113131,10.968 4.90424242,10.968 C5.05494949,10.968 5.17551515,10.968 5.26593939,10.9981414 L8.52121212,11.6009697 L8.67191919,11.7215354 L8.55135354,11.6009697 L8.76234343,11.6311111 L11.0229495,12.0229495 L11.5956364,12.0832323 C11.6257778,11.9928081 11.6257778,11.9325253 11.6257778,11.8722424 C11.6257778,11.7215354 11.5654949,11.6311111 11.2339394,11.329697 C11.1133737,11.2392727 10.9325253,11.0584242 10.7215354,10.7871515 L10.480404,10.5460202 L10.2091313,10.2144646 L9.69672727,9.64177778 C9.24460606,9.18965657 8.88290909,8.76767677 8.55135354,8.4059798 C7.58682828,7.32088889 7.16484848,6.65777778 7.16484848,6.38650505 C7.16484848,6.11523232 7.31555556,5.93438384 7.76767677,5.6329697 C8.52121212,5.18084848 8.82262626,5.03014141 9.1240404,5.03014141 C9.21446465,5.03014141 9.42545455,5.06028283 9.63644444,5.12056566 L9.93785859,5.45212121 L10.3899798,6.59749495 L11.3243636,9.00880808 L12.1080404,11.1187071 L12.1984646,11.2091313 L12.3190303,11.480404 L12.4697374,11.480404 L12.5300202,11.480404 L12.6505859,11.3598384 L13.4041212,9.31022222 L13.5849697,8.85810101 L14.5193535,6.32622222 L14.5494949,6.23579798 C14.8509091,5.45212121 15.2126061,5 15.6044444,5 L15.6647273,5 C16.1168485,5.06028283 16.5689697,5.24113131 17.0210909,5.54254545 C17.3225051,5.75353535 17.5033535,5.90424242 17.5636364,5.99466667 C17.5937778,6.05494949 17.6239192,6.23579798 17.6239192,6.41664646 C17.6239192,6.65777778 17.5334949,6.98933333 17.4430707,7.10989899 L14.7906263,10.0336162 L13.1629899,11.9325253 L13.2534141,12.0832323 L19.4625455,11.0584242 C19.5831111,11.0282828 19.7036768,11.0282828 19.8242424,11.0282828 Z" id="i" fill="#222222"></path>
    </g>
</svg>