<?xml version="1.0" encoding="UTF-8"?>
<svg width="24px" height="24px" viewBox="0 0 24 24" version="1.1" xmlns="http://www.w3.org/2000/svg" xmlns:xlink="http://www.w3.org/1999/xlink">
    <!-- Generator: Sketch 51.1 (57501) - http://www.bohemiancoding.com/sketch -->
    <title> bookmark</title>
    <desc>Created with Sketch.</desc>
    <defs></defs>
    <g id="-bookmark" stroke="none" stroke-width="1" fill="none" fill-rule="evenodd">
        <path d="M16,4.56589374 C16,4.23707782 15.7835135,4 15.5672438,4 L8.43275619,4 C8.21418231,4 8,4.23416511 8,4.56589374 L8,18.5 L12,14.3 L16,18.5 L16,4.56589374 Z M12.6904762,16.475 L12.7241379,16.4396552 L12.6568144,16.4396552 L12,15.75 L11.3431856,16.4396552 L11.2758621,16.4396552 L11.3095238,16.475 L7,21 L7,4.56589374 C7,3.70107451 7.64075723,3 8.43275619,3 L15.5672438,3 C16.3585332,3 17,3.70562133 17,4.56589374 L17,21 L12.6904762,16.475 Z" id="shape---bookmark" fill="#000000" fill-rule="nonzero"></path>
    </g>
</svg>