<?xml version="1.0" encoding="UTF-8"?>
<svg width="24px" height="24px" viewBox="0 0 24 24" version="1.1" xmlns="http://www.w3.org/2000/svg" xmlns:xlink="http://www.w3.org/1999/xlink">
    <!-- Generator: Sketch 51.1 (57501) - http://www.bohemiancoding.com/sketch -->
    <title> comments</title>
    <desc>Created with Sketch.</desc>
    <defs></defs>
    <g id="-comments" stroke="none" stroke-width="1" fill="none" fill-rule="evenodd">
        <path d="M15.617003,15.669908 L16.796827,15.2070485 C18.7216833,14.4519035 20,12.6499714 20,10.6166037 L20,10.3049811 C20,7.35655593 17.7061274,5 14.46708,5 L9.63372,5 C6.17913386,5 4,7.26393043 4,10.3049811 L4,10.6166037 C4,13.3481954 6.28295242,15.5720572 9.11244,15.5720572 L12.0087644,15.5720572 L17.1280532,17.838266 L15.617003,15.669908 Z M17.9824789,15.5662383 L17.9173068,15.7813652 C17.6753777,15.9162158 17.4231319,16.0355429 17.16204,16.1379725 L17.6131591,16.7853286 L17.527253,17.0688964 C17.6013876,17.0398125 17.6748459,17.0095936 17.7476087,16.9782639 L19.99272,20.2 L11.79732,16.5720572 L9.11244,16.5720572 C5.73708,16.5720572 3,13.9070464 3,10.6166037 L3,10.3049811 C3,7.01344492 5.33568,4 9.63372,4 L14.46708,4 C18.46236,4 21,7.01344492 21,10.3049811 L21,10.6166037 C21,12.7708369 19.8256981,14.6478159 18.0707641,15.6929276 L17.9824789,15.5662383 Z" id="shape---comments" fill="#000000" fill-rule="nonzero"></path>
    </g>
</svg>