<?xml version="1.0" encoding="UTF-8"?>
<svg width="24px" height="24px" viewBox="0 0 24 24" version="1.1" xmlns="http://www.w3.org/2000/svg" xmlns:xlink="http://www.w3.org/1999/xlink">
    <!-- Generator: Sketch 51.1 (57501) - http://www.bohemiancoding.com/sketch -->
    <title>moon</title>
    <desc>Created with Sketch.</desc>
    <defs></defs>
    <g id="moon" stroke="none" stroke-width="1" fill="none" fill-rule="evenodd">
        <path d="M11.1822949,12.8177051 C8.94089718,10.5763073 8.28208572,7.29228379 9.31563318,4.43765682 C6.1344437,5.58697821 3.93351128,8.67804766 4.04195998,12.2075114 C4.17179711,16.4330616 7.56693838,19.8282029 11.7924886,19.95804 C15.3219523,20.0664887 18.4130218,17.8655563 19.5623432,14.6843668 C16.7077162,15.7179143 13.4236927,15.0591028 11.1822949,12.8177051 Z M21.9957571,12.8820207 C21.5094802,18.14403 17.0130021,22.119393 11.7310643,21.9570966 C6.44912644,21.7948001 2.20519986,17.5508736 2.04290344,12.2689357 C1.88060702,6.98699788 5.85596998,2.49051982 11.1179793,2.0042429 C11.9781268,1.92475429 12.5276206,2.89976017 12.0141642,3.59440726 C10.2487601,5.98279444 10.4963841,9.30336714 12.5965085,11.4034915 C14.6966329,13.5036159 18.0172056,13.7512399 20.4055927,11.9858358 C21.1002398,11.4723794 22.0752457,12.0218732 21.9957571,12.8820207 Z" id="Shape" fill="#000000" fill-rule="nonzero"></path>
    </g>
</svg>