<svg viewBox="0 0 24 24">
  <path d="M12 18a6 6 0 1 1 0-12 6 6 0 0 1 0 12zm0-2a4 4 0 1 0 0-8 4 4 0 0 0 0 8zM11 1a1 1 0 0 1 2 0v2a1 1 0 0 1-2 0V1zM11 21a1 1 0 0 1 2 0v2a1 1 0 0 1-2 0v-2zM3.513 4.927a1 1 0 0 1 1.414-1.414l1.42 1.42a1 1 0 0 1-1.414 1.414l-1.42-1.42zM17.653 19.067a1 1 0 0 1 1.414-1.414l1.42 1.42a1 1 0 0 1-1.414 1.414l-1.42-1.42zM1 13a1 1 0 0 1 0-2h2a1 1 0 0 1 0 2H1zM21 13a1 1 0 0 1 0-2h2a1 1 0 0 1 0 2h-2zM4.927 20.487a1 1 0 1 1-1.414-1.414l1.42-1.42a1 1 0 1 1 1.414 1.414l-1.42 1.42zM19.067 6.347a1 1 0 0 1-1.414-1.414l1.42-1.42a1 1 0 0 1 1.414 1.414l-1.42 1.42z"/>
</svg>