<?xml version="1.0" encoding="UTF-8"?>
<svg width="24px" height="24px" viewBox="0 0 24 24" version="1.1" xmlns="http://www.w3.org/2000/svg" xmlns:xlink="http://www.w3.org/1999/xlink">
    <!-- Generator: Sketch 51.1 (57501) - http://www.bohemiancoding.com/sketch -->
    <title>trending</title>
    <desc>Created with Sketch.</desc>
    <defs></defs>
    <path d="M13.5,14.0857864 L22.2928932,5.29289322 C22.6834175,4.90236893 23.3165825,4.90236893 23.7071068,5.29289322 C24.0976311,5.68341751 24.0976311,6.31658249 23.7071068,6.70710678 L14.2071068,16.2071068 C13.8165825,16.5976311 13.1834175,16.5976311 12.7928932,16.2071068 L8.5,11.9142136 L1.70710678,18.7071068 C1.31658249,19.0976311 0.683417511,19.0976311 0.292893219,18.7071068 C-0.0976310729,18.3165825 -0.0976310729,17.6834175 0.292893219,17.2928932 L7.79289322,9.79289322 C8.18341751,9.40236893 8.81658249,9.40236893 9.20710678,9.79289322 L13.5,14.0857864 Z" id="Shape" fill="#000000" fill-rule="nonzero"></path>
    <path d="M22,7 L17,7 C16.4477153,7 16,6.55228475 16,6 C16,5.44771525 16.4477153,5 17,5 L23,5 C23.5522847,5 24,5.44771525 24,6 L24,12 C24,12.5522847 23.5522847,13 23,13 C22.4477153,13 22,12.5522847 22,12 L22,7 Z" id="Shape" fill="#000000" fill-rule="nonzero"></path>
</svg>